<?xml version="1.0" encoding="UTF-8" standalone="no"?>
<!DOCTYPE svg PUBLIC "-//W3C//DTD SVG 1.1//EN" "http://www.w3.org/Graphics/SVG/1.1/DTD/svg11.dtd">
<svg width="100%" height="100%" viewBox="0 0 800 800" version="1.1" xmlns="http://www.w3.org/2000/svg" xmlns:xlink="http://www.w3.org/1999/xlink" xml:space="preserve" xmlns:serif="http://www.serif.com/" style="fill-rule:evenodd;clip-rule:evenodd;stroke-linejoin:round;stroke-miterlimit:2;">
    <g transform="matrix(1.85872,0,0,1.85872,57.4006,182.337)">
        <g transform="matrix(0.936108,0,0,0.936108,8.71073,-31.3427)">
            <path d="M1.658,290.558C1.473,290.199 1.545,290.345 1.652,290.561L1.658,290.558ZM11.81,285.218C11.823,285.225 11.835,285.238 11.846,285.257C11.653,284.887 11.31,284.236 11.81,285.218ZM46.293,320.1C27.529,317.226 10.331,307.498 2.09,291.399L1.658,290.558L1.652,290.561C1.81,290.879 2.043,291.35 1.637,290.569C0.021,287.463 -0.761,285.967 1.007,282.956C2.981,279.583 4.749,279.741 8.163,280.046C8.191,280.048 8.213,280.051 9.296,280.125C30.392,281.567 32.821,278.228 41.556,266.219C43.392,263.695 45.474,260.833 48.278,257.22C48.814,256.529 49.21,256.03 49.466,255.719C58.956,244.236 70.444,238.86 82.305,238.413C93.935,237.974 105.724,242.371 116.127,250.444C116.876,251.026 117.443,251.475 117.826,251.792L117.816,251.803C118.901,252.701 119.66,253.997 119.851,255.502C122.491,276.335 116.317,292.098 105.497,303.007C98.046,310.518 88.441,315.624 78.046,318.421C67.812,321.176 56.779,321.706 46.293,320.1ZM16.046,291.961C23.332,301.083 35.163,306.752 48.002,308.719C56.977,310.093 66.386,309.65 75.077,307.311C83.605,305.015 91.409,300.904 97.354,294.91C105.427,286.772 110.162,274.96 108.72,259.231C100.502,252.964 91.439,249.554 82.71,249.883C74.072,250.208 65.562,254.297 58.328,263.051C57.861,263.617 57.539,264.013 57.364,264.238C55.014,267.267 52.811,270.296 50.868,272.966C40.363,287.409 36.681,292.463 16.046,291.961Z" style="fill:white;fill-rule:nonzero;"/>
        </g>
        <g transform="matrix(0.936108,0,0,0.936108,8.71073,-31.3427)">
            <path d="M111.365,253.51C109.825,256.281 106.33,257.279 103.56,255.737C100.79,254.197 99.793,250.702 101.333,247.932C125.796,203.758 162.441,161.807 200.883,125.229C264.948,64.272 334.147,18.125 359.824,1.774C362.494,0.073 366.039,0.858 367.741,3.529C368.999,5.502 368.897,7.953 367.681,9.785C351.078,35.848 304.039,106.339 242.032,170.992C204.846,209.765 162.225,246.489 117.414,270.447C114.619,271.938 111.145,270.88 109.654,268.085C108.164,265.291 109.221,261.817 112.016,260.327C155.588,237.031 197.271,201.071 233.756,163.03C281.495,113.253 320.249,60.003 342.824,26.691C310.03,48.915 257.911,86.82 208.8,133.551C171.082,169.44 135.188,210.492 111.365,253.51Z" style="fill:white;fill-rule:nonzero;"/>
        </g>
    </g>
</svg>
