<?xml version="1.0" encoding="UTF-8" standalone="no"?>
<!DOCTYPE svg PUBLIC "-//W3C//DTD SVG 1.1//EN" "http://www.w3.org/Graphics/SVG/1.1/DTD/svg11.dtd">
<svg width="100%" height="100%" viewBox="0 0 800 800" version="1.1" xmlns="http://www.w3.org/2000/svg" xmlns:xlink="http://www.w3.org/1999/xlink" xml:space="preserve" xmlns:serif="http://www.serif.com/" style="fill-rule:evenodd;clip-rule:evenodd;stroke-linejoin:round;stroke-miterlimit:2;">
    <g transform="matrix(1.85872,0,0,1.85872,57.4006,182.337)">
        <path d="M311.768,15.208C321.573,22.234 330.432,32.389 336.293,47.023C337.318,49.583 338.32,52.431 339.313,55.028C355.011,96.101 390.688,192.575 349.424,226.787C323.192,248.536 293.572,213.613 276.342,195.095C272.714,191.197 269.397,187.633 266.618,184.915C266.175,184.544 265.779,184.1 265.451,183.587L265.471,183.574C265.46,183.556 261.607,177.299 248.096,177.299L120.499,177.299C108.628,177.299 104.213,182.127 103.309,183.313C103.042,183.788 102.703,184.232 102.292,184.629L102.282,184.618C99.441,187.371 96.014,191.053 92.252,195.095C73.937,214.779 48.31,242.313 26.325,231.607C-26.287,205.981 13.558,96.253 29.423,54.661C30.388,52.131 31.36,49.357 32.358,46.879C38.22,32.322 47.053,22.211 56.827,15.208C72.171,4.214 89.708,1.032 101.599,0.283C121.467,-0.97 131.835,13.255 140.868,25.649C146.148,32.894 150.829,39.315 155.385,39.097C155.581,39.076 155.779,39.066 155.979,39.066L212.596,39.066C212.752,39.066 212.91,39.071 213.068,39.084L213.068,39.089C217.669,39.449 222.392,32.97 227.727,25.649C236.759,13.255 247.127,-0.97 266.996,0.283C278.886,1.032 296.423,4.214 311.768,15.208ZM324.879,49.556C319.945,38.157 312.851,30.163 305.055,24.578C291.917,15.164 276.657,12.424 266.275,11.77C252.672,10.912 244.3,22.399 237.006,32.406C229.724,42.398 223.269,51.253 212.506,50.598L156.088,50.598C145.326,51.253 138.871,42.398 131.588,32.406C124.295,22.399 115.923,10.912 102.319,11.77C91.937,12.424 76.677,15.164 63.539,24.578C55.319,30.467 47.878,39.032 42.929,51.445C41.849,54.153 40.82,57.105 39.773,59.846C24.458,99.955 -9.726,193.022 28.793,219.69L28.809,219.679C28.924,219.758 29.035,219.841 29.143,219.928C43.775,230.298 67.296,205.024 83.829,187.257C87.537,183.272 90.924,179.631 93.97,176.659C95.953,174.094 103.686,165.767 120.499,165.767L248.096,165.767C264.908,165.767 272.641,174.094 274.624,176.659C277.67,179.631 281.058,183.272 284.766,187.257C301.374,205.106 325.037,230.536 339.653,219.788L339.646,219.778C339.775,219.682 339.908,219.593 340.043,219.509C378.464,192.404 343.566,98.416 328.466,58.918C327.304,55.878 326.147,52.487 324.879,49.556Z" style="fill:white;fill-rule:nonzero;"/>
        <path d="M144.295,171.534C144.295,174.718 146.877,177.299 150.061,177.299C153.246,177.299 155.827,174.718 155.827,171.534L155.827,153.623C155.827,153.581 155.849,153.538 155.883,153.504C155.917,153.47 155.961,153.449 156.002,153.449L212.592,153.449C212.634,153.449 212.677,153.47 212.711,153.504C212.745,153.538 212.767,153.581 212.767,153.623L212.767,171.534C212.767,174.718 215.349,177.299 218.533,177.299C221.718,177.299 224.299,174.718 224.299,171.534L224.299,153.623C224.299,150.398 222.983,147.469 220.864,145.351C218.746,143.232 215.817,141.916 212.592,141.916L156.002,141.916C152.777,141.916 149.848,143.232 147.729,145.351C145.611,147.469 144.295,150.398 144.295,153.623L144.295,171.534Z" style="fill:white;fill-rule:nonzero;"/>
        <path d="M275.67,64.273C283.255,64.273 289.403,70.422 289.403,78.006C289.403,85.591 283.255,91.739 275.67,91.739C268.086,91.739 261.937,85.591 261.937,78.006C261.937,70.422 268.086,64.273 275.67,64.273Z" style="fill:white;"/>
        <path d="M275.67,114.89C283.255,114.89 289.403,121.038 289.403,128.623C289.403,136.206 283.255,142.355 275.67,142.355C268.086,142.355 261.937,136.206 261.937,128.623C261.937,121.038 268.086,114.89 275.67,114.89Z" style="fill:white;"/>
        <path d="M314.712,103.314C314.712,110.899 308.563,117.047 300.979,117.047C293.395,117.047 287.246,110.899 287.246,103.314C287.246,95.73 293.395,89.582 300.979,89.582C308.563,89.582 314.712,95.73 314.712,103.314Z" style="fill:white;"/>
        <path d="M264.095,103.314C264.095,110.899 257.946,117.047 250.362,117.047C242.778,117.047 236.63,110.899 236.63,103.314C236.63,95.73 242.778,89.582 250.362,89.582C257.946,89.582 264.095,95.73 264.095,103.314Z" style="fill:white;"/>
        <path d="M98.429,70.139C97.391,69.1 95.964,68.456 94.399,68.456C92.835,68.456 91.408,69.1 90.371,70.139C89.333,71.176 88.689,72.603 88.689,74.168L88.689,91.73C88.689,94.915 86.106,97.496 82.922,97.496L65.36,97.496C63.795,97.496 62.369,98.141 61.331,99.179C60.293,100.216 59.648,101.643 59.648,103.207C59.648,104.772 60.293,106.199 61.331,107.237C62.369,108.274 63.795,108.919 65.36,108.919L82.922,108.919C86.106,108.919 88.689,111.5 88.689,114.685L88.689,132.247C88.689,133.812 89.333,135.239 90.371,136.277C91.408,137.315 92.835,137.959 94.399,137.959C95.964,137.959 97.391,137.315 98.429,136.277C99.467,135.239 100.112,133.812 100.112,132.247L100.112,114.685C100.112,111.5 102.694,108.919 105.878,108.919L123.441,108.919C125.005,108.919 126.432,108.274 127.47,107.237C128.507,106.199 129.151,104.772 129.151,103.207C129.151,101.643 128.507,100.216 127.47,99.179C126.432,98.141 125.005,97.496 123.441,97.496L105.878,97.496C102.694,97.496 100.112,94.915 100.112,91.73L100.112,74.168C100.112,72.603 99.467,71.176 98.429,70.139ZM94.399,56.924C99.148,56.924 103.461,58.862 106.583,61.985C109.706,65.107 111.644,69.42 111.644,74.168L111.644,85.964L123.441,85.964C128.188,85.964 132.501,87.903 135.624,91.025C138.746,94.147 140.684,98.46 140.684,103.207C140.684,107.955 138.746,112.268 135.624,115.391C132.501,118.513 128.188,120.451 123.441,120.451L111.644,120.451L111.644,132.247C111.644,136.996 109.706,141.308 106.583,144.43C103.461,147.553 99.148,149.492 94.399,149.492C89.652,149.492 85.339,147.553 82.217,144.43C79.095,141.308 77.156,136.996 77.156,132.247L77.156,120.451L65.36,120.451C60.612,120.451 56.299,118.513 53.177,115.391C50.055,112.268 48.116,107.955 48.116,103.207C48.116,98.46 50.055,94.147 53.177,91.025C56.299,87.903 60.612,85.964 65.36,85.964L77.156,85.964L77.156,74.168C77.156,69.42 79.095,65.107 82.217,61.985C85.339,58.862 89.652,56.924 94.399,56.924Z" style="fill:white;fill-rule:nonzero;"/>
    </g>
</svg>
