<?xml version="1.0" encoding="UTF-8" standalone="no"?>
<!DOCTYPE svg PUBLIC "-//W3C//DTD SVG 1.1//EN" "http://www.w3.org/Graphics/SVG/1.1/DTD/svg11.dtd">
<svg width="100%" height="100%" viewBox="0 0 800 800" version="1.1" xmlns="http://www.w3.org/2000/svg" xmlns:xlink="http://www.w3.org/1999/xlink" xml:space="preserve" xmlns:serif="http://www.serif.com/" style="fill-rule:evenodd;clip-rule:evenodd;stroke-linejoin:round;stroke-miterlimit:2;">
    <g transform="matrix(0.762122,0,0,0.762122,-2150.67,-362.12)">
        <path d="M3045.17,1346.06L3144.82,1346.06L3144.82,1101.75L3045.17,1101.75L3045.17,1346.06ZM3160.83,1378.09L3029.15,1378.09C3020.31,1378.09 3013.14,1370.92 3013.14,1362.08L3013.14,1085.74C3013.14,1076.89 3020.31,1069.72 3029.15,1069.72L3160.83,1069.72C3169.68,1069.72 3176.85,1076.89 3176.85,1085.74L3176.85,1362.08C3176.85,1370.92 3169.68,1378.09 3160.83,1378.09Z" style="fill:white;fill-rule:nonzero;"/>
        <path d="M3296.97,1346.06L3396.62,1346.06L3396.62,1018.21L3296.97,1018.21L3296.97,1346.06ZM3412.63,1378.09L3280.96,1378.09C3272.11,1378.09 3264.94,1370.92 3264.94,1362.08L3264.94,1002.2C3264.94,993.351 3272.11,986.18 3280.96,986.18L3412.63,986.18C3421.48,986.18 3428.65,993.351 3428.65,1002.2L3428.65,1362.08C3428.65,1370.92 3421.48,1378.09 3412.63,1378.09Z" style="fill:white;fill-rule:nonzero;"/>
        <path d="M3548.77,1346.06L3648.42,1346.06L3648.42,916.972L3548.77,916.972L3548.77,1346.06ZM3664.43,1378.09L3532.75,1378.09C3523.91,1378.09 3516.74,1370.92 3516.74,1362.08L3516.74,900.957C3516.74,892.112 3523.91,884.94 3532.75,884.94L3664.43,884.94C3673.28,884.94 3680.45,892.112 3680.45,900.957L3680.45,1362.08C3680.45,1370.92 3673.28,1378.09 3664.43,1378.09Z" style="fill:white;fill-rule:nonzero;"/>
        <path d="M3025.22,1034.96C3017.33,1034.96 3010.45,1029.12 3009.37,1021.09C3008.18,1012.32 3014.32,1004.26 3023.08,1003.07C3024.16,1002.92 3102.72,991.679 3219.4,939.987C3327.25,892.206 3490.69,799.087 3656.82,626.807C3662.96,620.443 3673.1,620.257 3679.47,626.396C3685.83,632.537 3686.02,642.676 3679.88,649.043C3509.62,825.592 3341.79,920.968 3230.98,969.89C3110.27,1023.18 3030.71,1034.36 3027.38,1034.81C3026.66,1034.91 3025.93,1034.96 3025.22,1034.96Z" style="fill:white;fill-rule:nonzero;"/>
        <path d="M3556.26,665.849C3548.17,665.849 3541.22,659.746 3540.35,651.522C3539.42,642.727 3545.79,634.84 3554.58,633.905L3666.66,621.999C3675.41,621.057 3683.34,627.436 3684.28,636.234C3685.21,645.03 3678.84,652.917 3670.04,653.851L3557.97,665.757C3557.39,665.818 3556.82,665.849 3556.26,665.849Z" style="fill:white;fill-rule:nonzero;"/>
        <path d="M3656.46,766.018C3655.9,766.018 3655.33,765.986 3654.75,765.925C3645.96,764.991 3639.58,757.104 3640.52,748.308L3652.42,636.234C3653.36,627.438 3661.23,621.066 3670.04,621.999C3678.84,622.934 3685.21,630.82 3684.28,639.616L3672.37,751.69C3671.5,759.912 3664.55,766.018 3656.46,766.018Z" style="fill:white;fill-rule:nonzero;"/>
    </g>
</svg>
