<?xml version="1.0" encoding="UTF-8" standalone="no"?>
<!DOCTYPE svg PUBLIC "-//W3C//DTD SVG 1.1//EN" "http://www.w3.org/Graphics/SVG/1.1/DTD/svg11.dtd">
<svg width="100%" height="100%" viewBox="0 0 266 266" version="1.1" xmlns="http://www.w3.org/2000/svg" xmlns:xlink="http://www.w3.org/1999/xlink" xml:space="preserve" xmlns:serif="http://www.serif.com/" style="fill-rule:evenodd;clip-rule:evenodd;stroke-linejoin:round;stroke-miterlimit:2;">
    <g transform="matrix(3.125,0,0,3.125,0,0)">
        <g id="back-32" transform="matrix(1,0,0,1,-1050,-315)">
            <path d="M1135,315L1050,315L1050,400L1135,400L1135,315ZM1092.5,334.29C1079.44,334.291 1068.7,345.035 1068.7,358.09C1068.7,368.309 1075.28,377.44 1084.98,380.67C1086.17,380.89 1086.6,380.15 1086.6,379.53L1086.6,375.1C1079.98,376.53 1078.6,372.29 1078.6,372.29C1077.52,369.54 1075.96,368.8 1075.96,368.8C1073.8,367.33 1076.12,367.36 1076.12,367.36C1077.65,367.569 1079,368.475 1079.77,369.81C1081.89,373.45 1085.34,372.4 1086.7,371.81C1086.8,370.602 1087.34,369.472 1088.21,368.63C1082.92,368.03 1077.36,365.98 1077.36,356.86C1077.33,354.497 1078.21,352.209 1079.82,350.48C1079.09,348.429 1079.17,346.172 1080.05,344.18C1080.93,342.188 1082.05,343.54 1086.59,346.62C1090.49,345.553 1094.61,345.553 1098.51,346.62C1103.06,343.54 1105.05,344.18 1105.05,344.18C1105.93,346.172 1106.01,348.429 1105.28,350.48C1106.89,352.21 1107.77,354.498 1107.73,356.86C1107.73,366.01 1102.17,368.02 1096.87,368.61C1098.02,369.78 1098.6,371.388 1098.48,373.02L1098.48,379.55C1098.48,380.18 1098.91,380.92 1100.12,380.69C1109.82,377.46 1116.4,368.329 1116.4,358.11C1116.4,345.054 1105.65,334.31 1092.6,334.31C1092.59,334.31 1092.59,334.31 1092.58,334.31L1092.5,334.29ZM1084.62,373.14C1084.62,373.34 1084.4,373.5 1084.12,373.5C1083.84,373.5 1083.6,373.35 1083.6,373.16C1083.6,372.97 1083.82,372.8 1084.11,372.79C1084.4,372.78 1084.62,372.95 1084.62,373.14ZM1086.44,372.83C1086.44,373.02 1086.27,373.22 1085.99,373.27C1085.71,373.32 1085.46,373.21 1085.43,373.02C1085.4,372.83 1085.59,372.62 1085.87,372.57C1086.15,372.52 1086.4,372.64 1086.44,372.83ZM1082.68,373C1082.62,373.18 1082.35,373.27 1082.08,373.19C1081.81,373.11 1081.64,372.89 1081.69,372.7C1081.74,372.51 1082.02,372.43 1082.29,372.51C1082.56,372.59 1082.73,372.81 1082.68,373ZM1080.9,372.23C1080.77,372.37 1080.49,372.33 1080.29,372.14C1080.09,371.95 1080.02,371.67 1080.16,371.53C1080.3,371.39 1080.57,371.43 1080.77,371.62C1080.97,371.81 1081.04,372.09 1080.9,372.23ZM1079.62,370.91C1079.47,371.01 1079.23,370.91 1079.09,370.7C1078.95,370.49 1078.94,370.23 1079.09,370.13C1079.24,370.03 1079.47,370.13 1079.62,370.33C1079.77,370.53 1079.77,370.8 1079.62,370.91ZM1078.68,369.53C1078.57,369.64 1078.34,369.59 1078.19,369.42C1078.05,369.299 1078.02,369.086 1078.12,368.93C1078.24,368.82 1078.45,368.87 1078.61,369.04C1078.77,369.21 1078.8,369.43 1078.68,369.53ZM1077.71,368.46C1077.71,368.58 1077.48,368.61 1077.31,368.53C1077.14,368.45 1077.04,368.29 1077.09,368.17C1077.14,368.05 1077.33,368.02 1077.5,368.1C1077.67,368.18 1077.77,368.34 1077.71,368.46Z" style="fill:white;"/>
        </g>
    </g>
</svg>
