<?xml version="1.0" encoding="UTF-8" standalone="no"?>
<!DOCTYPE svg PUBLIC "-//W3C//DTD SVG 1.1//EN" "http://www.w3.org/Graphics/SVG/1.1/DTD/svg11.dtd">
<svg width="100%" height="100%" viewBox="0 0 266 266" version="1.1" xmlns="http://www.w3.org/2000/svg" xmlns:xlink="http://www.w3.org/1999/xlink" xml:space="preserve" xmlns:serif="http://www.serif.com/" style="fill-rule:evenodd;clip-rule:evenodd;stroke-linejoin:round;stroke-miterlimit:2;">
    <g transform="matrix(3.125,0,0,3.125,0,0)">
        <g id="back-23" transform="matrix(1,0,0,1,-840,-525)">
            <path d="M925,525L840,525L840,610L925,610L925,525ZM906.3,552.74C904.516,553.526 902.626,554.045 900.69,554.28C902.732,553.058 904.261,551.135 904.99,548.87C903.07,550.008 900.97,550.809 898.78,551.24C896.934,549.276 894.355,548.16 891.66,548.16C886.304,548.16 881.896,552.564 881.89,557.92C881.891,558.67 881.975,559.418 882.14,560.15C874.297,559.767 866.974,556.076 862,550C859.439,554.423 860.76,560.146 865,563C863.447,562.951 861.929,562.533 860.57,561.78L860.57,561.91C860.574,566.541 863.87,570.565 868.41,571.48C866.971,571.866 865.464,571.924 864,571.65C865.272,575.619 868.953,578.356 873.12,578.43C869.661,581.135 865.391,582.6 861,582.59C860.221,582.589 859.443,582.542 858.67,582.45C863.141,585.33 868.352,586.855 873.67,586.84C891.67,586.84 901.46,571.96 901.46,559.06L901.46,557.79C903.36,556.407 904.999,554.697 906.3,552.74Z" style="fill:white;"/>
        </g>
    </g>
</svg>
