<?xml version="1.0" encoding="UTF-8" standalone="no"?>
<!DOCTYPE svg PUBLIC "-//W3C//DTD SVG 1.1//EN" "http://www.w3.org/Graphics/SVG/1.1/DTD/svg11.dtd">
<svg width="100%" height="100%" viewBox="0 0 800 800" version="1.1" xmlns="http://www.w3.org/2000/svg" xmlns:xlink="http://www.w3.org/1999/xlink" xml:space="preserve" xmlns:serif="http://www.serif.com/" style="fill-rule:evenodd;clip-rule:evenodd;stroke-linejoin:round;stroke-miterlimit:2;">
    <g transform="matrix(0.520268,0,0,0.520268,-250.335,-133.273)">
        <path d="M670,1227.63L670,1338.53C670,1355.07 683.457,1368.53 700,1368.53L1800,1368.53C1816.54,1368.53 1830,1355.07 1830,1338.53L1830,1227.63L670,1227.63ZM1800,1408.53L700,1408.53C661.401,1408.53 630,1377.12 630,1338.53L630,1207.63C630,1196.58 638.955,1187.63 650,1187.63L1850,1187.63C1861.04,1187.63 1870,1196.58 1870,1207.63L1870,1338.53C1870,1377.12 1838.6,1408.53 1800,1408.53Z" style="fill:white;fill-rule:nonzero;"/>
        <path d="M670,1187.63L1830,1187.63L1830,563.525C1830,546.982 1816.54,533.525 1800,533.525L700,533.525C683.457,533.525 670,546.982 670,563.525L670,1187.63ZM1850,1227.63L650,1227.63C638.955,1227.63 630,1218.67 630,1207.63L630,563.525C630,524.927 661.401,493.525 700,493.525L1800,493.525C1838.6,493.525 1870,524.927 1870,563.525L1870,1207.63C1870,1218.67 1861.04,1227.63 1850,1227.63Z" style="fill:white;fill-rule:nonzero;"/>
        <path d="M1267.5,1298.08C1267.5,1307.74 1259.67,1315.58 1250,1315.58C1240.33,1315.58 1232.5,1307.74 1232.5,1298.08C1232.5,1288.41 1240.33,1280.58 1250,1280.58C1259.67,1280.58 1267.5,1288.41 1267.5,1298.08Z" style="fill:white;fill-rule:nonzero;"/>
        <path d="M1425.85,1556.47L1074.15,1556.47C1068.26,1556.47 1062.68,1553.88 1058.87,1549.38C1055.08,1544.89 1053.45,1538.95 1054.43,1533.14L1079.43,1385.2C1081.27,1374.3 1091.62,1366.98 1102.48,1368.8C1113.37,1370.64 1120.71,1380.97 1118.87,1391.86L1097.81,1516.47L1402.19,1516.47L1381.13,1391.86C1379.29,1380.97 1386.63,1370.64 1397.52,1368.8C1408.37,1366.98 1418.73,1374.3 1420.57,1385.2L1445.57,1533.14C1446.55,1538.95 1444.93,1544.89 1441.12,1549.38C1437.32,1553.88 1431.74,1556.47 1425.85,1556.47Z" style="fill:white;fill-rule:nonzero;"/>
        <path d="M1550,1556.47L950,1556.47C938.955,1556.47 930,1547.52 930,1536.47C930,1525.43 938.955,1516.47 950,1516.47L1550,1516.47C1561.04,1516.47 1570,1525.43 1570,1536.47C1570,1547.52 1561.04,1556.47 1550,1556.47Z" style="fill:white;fill-rule:nonzero;"/>
    </g>
</svg>
