<?xml version="1.0" encoding="UTF-8" standalone="no"?>
<!DOCTYPE svg PUBLIC "-//W3C//DTD SVG 1.1//EN" "http://www.w3.org/Graphics/SVG/1.1/DTD/svg11.dtd">
<svg width="100%" height="100%" viewBox="0 0 86809 50625" version="1.1" xmlns="http://www.w3.org/2000/svg" xmlns:xlink="http://www.w3.org/1999/xlink" xml:space="preserve" xmlns:serif="http://www.serif.com/" style="fill-rule:evenodd;clip-rule:evenodd;stroke-linejoin:round;stroke-miterlimit:2;">
    <g transform="matrix(4.16667,0,0,4.16667,0,0)">
        <g transform="matrix(2.58762e-17,-0.42259,0.42259,2.58762e-17,-67.2684,12150)">
            <g opacity="0.5">
                <path d="M2283.7,4109.05L1500.85,5064.08C1485.52,5081.69 1477.97,5101.53 1477.97,5123.52L1477.97,5517.86C1477.97,5535.51 1483.53,5549.18 1493.61,5559.27C1503.69,5569.35 1517.37,5574.9 1535.01,5574.9L2843.13,5574.9C2860.77,5574.9 2874.45,5569.35 2884.53,5559.27C2894.62,5549.18 2900.17,5535.51 2900.17,5517.86C2900.17,5517.86 2900.17,5161.6 2900.17,5161.6C2900.17,5143.95 2894.62,5130.28 2884.53,5120.19C2874.45,5110.11 2860.77,5104.56 2843.13,5104.56L2089.06,5104.56L2876.95,4149.94C2892.13,4134.46 2900.17,4113.71 2900.17,4087.37C2900.17,4087.37 2900.17,3695.75 2900.17,3695.75C2900.17,3678.1 2894.62,3664.43 2884.53,3654.35C2874.45,3644.26 2860.77,3638.71 2843.13,3638.71L1535.01,3638.71C1517.37,3638.71 1503.69,3644.26 1493.61,3654.35C1483.53,3664.43 1477.97,3678.1 1477.97,3695.75L1477.97,4052.01C1477.97,4069.66 1483.53,4083.33 1493.61,4093.42C1503.69,4103.5 1517.37,4109.05 1535.01,4109.05L2283.7,4109.05ZM1535.01,5558.66C1522.32,5558.66 1512.35,5555.03 1505.1,5547.78C1497.85,5540.53 1494.22,5530.55 1494.22,5517.86L1494.22,5123.52C1494.22,5105.39 1500.57,5089.08 1513.26,5074.57L2304.65,4109.12C2308.28,4105.5 2309.18,4101.87 2307.37,4098.24C2305.56,4094.62 2301.93,4092.81 2296.49,4092.81L1535.01,4092.81C1522.32,4092.81 1512.35,4089.18 1505.1,4081.93C1497.85,4074.68 1494.22,4064.7 1494.22,4052.01L1494.22,3695.75C1494.22,3683.06 1497.85,3673.09 1505.1,3665.83C1512.35,3658.58 1522.32,3654.95 1535.01,3654.95L2843.13,3654.95C2855.82,3654.95 2865.79,3658.58 2873.04,3665.83C2880.3,3673.09 2883.92,3683.06 2883.92,3695.75L2883.92,4087.37C2883.92,4109.12 2877.58,4126.35 2864.89,4139.04L2068.05,5104.49C2064.42,5108.11 2063.52,5111.74 2065.33,5115.37C2067.14,5118.99 2070.77,5120.81 2076.21,5120.81L2843.13,5120.81C2855.82,5120.81 2865.79,5124.43 2873.04,5131.68C2880.3,5138.94 2883.92,5148.91 2883.92,5161.6L2883.92,5517.86C2883.92,5530.55 2880.3,5540.53 2873.04,5547.78C2865.79,5555.03 2855.82,5558.66 2843.13,5558.66L1535.01,5558.66Z" style="fill:white;"/>
                <path d="M3642.06,5316.54L4214.42,5316.54L4214.98,5317.4C4214.99,5317.41 4274.2,5527.36 4274.2,5527.36C4277.92,5543.14 4285.34,5554.79 4295.71,5562.72C4305.93,5570.54 4319.33,5574.9 4336.17,5574.9L4801.22,5574.9C4822.59,5574.9 4837.05,5568.47 4845.59,5558.4C4851.91,5550.94 4855.54,5541.16 4855.54,5528.74C4855.54,5519.11 4854.03,5511.76 4851.76,5506.55C4836.74,5458.8 4278.24,3682.72 4278.24,3682.72C4278.22,3682.63 4278.19,3682.54 4278.16,3682.45C4268.47,3653.39 4247.99,3638.71 4216.51,3638.71L3639.96,3638.71C3608.48,3638.71 3588,3653.39 3578.32,3682.45C3578.29,3682.54 3578.26,3682.63 3578.23,3682.72L3004.4,5507.55C3004.37,5507.65 3004.34,5507.74 3004.31,5507.84C2997.87,5529.74 3000.66,5546.02 3009.03,5556.97C3017.32,5567.8 3032.31,5574.9 3055.26,5574.9L3520.3,5574.9C3537.14,5574.9 3550.54,5570.54 3560.77,5562.72C3571.14,5554.79 3578.56,5543.13 3582.28,5527.33C3582.27,5527.36 3641.49,5317.41 3641.49,5317.41L3642.06,5316.54ZM4336.17,5558.66C4310.79,5558.66 4295.38,5546.87 4289.94,5523.3L4230.11,5311.18C4226.48,5303.92 4221.95,5300.3 4216.51,5300.3L3639.96,5300.3C3634.52,5300.3 3629.99,5303.92 3626.37,5311.18L3566.53,5523.3C3561.1,5546.87 3545.68,5558.66 3520.3,5558.66L3055.26,5558.66C3022.62,5558.66 3010.84,5543.24 3019.9,5512.42L3593.73,3687.59C3600.98,3665.83 3616.39,3654.95 3639.96,3654.95L4216.51,3654.95C4240.08,3654.95 4255.49,3665.83 4262.74,3687.59L4836.57,5512.42C4838.39,5516.05 4839.29,5521.49 4839.29,5528.74C4839.29,5548.68 4826.6,5558.66 4801.22,5558.66L4336.17,5558.66ZM3746.03,4892.36C3744.21,4903.24 3747.84,4908.68 3756.9,4908.68L4096.85,4908.68C4107.73,4908.68 4111.36,4903.24 4107.73,4892.36L3933.68,4283.18C3931.86,4277.74 3929.14,4275.02 3925.52,4275.02C3921.89,4275.02 3919.17,4277.74 3917.36,4283.18L3746.03,4892.36ZM3925.58,4313.97L3762.88,4892.43L4090.85,4892.43L3925.58,4313.97Z" style="fill:white;"/>
                <path d="M5870.01,4216.56L5533.05,3673.67C5519.06,3650.44 5498.16,3638.71 5470.23,3638.71L5045.98,3638.71C5028.34,3638.71 5014.66,3644.26 5004.58,3654.35C4994.49,3664.43 4988.94,3678.1 4988.94,3695.75L4988.94,5517.86C4988.94,5535.51 4994.49,5549.18 5004.58,5559.27C5014.66,5569.35 5028.34,5574.9 5045.98,5574.9L5475.67,5574.9C5493.32,5574.9 5506.99,5569.35 5517.08,5559.27C5527.16,5549.18 5532.71,5535.51 5532.71,5517.86L5532.71,4556.21L5703.83,4835.53C5717.82,4858.79 5738.72,4870.53 5766.67,4870.53L5973.36,4870.53C6001.3,4870.53 6022.2,4858.79 6036.19,4835.53L6207.31,4556.2L6207.31,5517.86C6207.31,5535.51 6212.86,5549.18 6222.95,5559.27C6233.03,5569.35 6246.7,5574.9 6264.35,5574.9L6694.04,5574.9C6711.69,5574.9 6725.36,5569.35 6735.45,5559.27C6745.53,5549.18 6751.08,5535.51 6751.08,5517.86L6751.08,3695.75C6751.08,3678.1 6745.53,3664.43 6735.45,3654.35C6725.36,3644.26 6711.69,3638.71 6694.04,3638.71L6269.79,3638.71C6241.84,3638.71 6220.93,3650.46 6206.94,3673.73L6206.98,3673.67L5870.01,4216.56ZM6220.84,3682.15C6231.72,3664.02 6248.03,3654.95 6269.79,3654.95L6694.04,3654.95C6706.73,3654.95 6716.71,3658.58 6723.96,3665.83C6731.21,3673.09 6734.84,3683.06 6734.84,3695.75L6734.84,5517.86C6734.84,5530.55 6731.21,5540.53 6723.96,5547.78C6716.71,5555.03 6706.73,5558.66 6694.04,5558.66L6264.35,5558.66C6251.66,5558.66 6241.69,5555.03 6234.44,5547.78C6227.18,5540.53 6223.56,5530.55 6223.56,5517.86L6223.56,4530.66C6223.56,4523.4 6221.74,4519.33 6218.12,4518.42C6214.49,4517.51 6210.86,4519.78 6207.24,4525.22L6022.31,4827.09C6011.43,4845.22 5995.11,4854.29 5973.36,4854.29L5766.67,4854.29C5744.91,4854.29 5728.6,4845.22 5717.72,4827.09L5532.78,4525.22C5529.16,4519.78 5525.53,4517.51 5521.91,4518.42C5518.28,4519.33 5516.47,4523.4 5516.47,4530.66L5516.47,5517.86C5516.47,5530.55 5512.84,5540.53 5505.59,5547.78C5498.34,5555.03 5488.37,5558.66 5475.67,5558.66L5045.98,5558.66C5033.29,5558.66 5023.32,5555.03 5016.07,5547.78C5008.81,5540.53 5005.19,5530.55 5005.19,5517.86L5005.19,3695.75C5005.19,3683.06 5008.81,3673.09 5016.07,3665.83C5023.32,3658.58 5033.29,3654.95 5045.98,3654.95L5470.23,3654.95C5491.99,3654.95 5508.31,3664.02 5519.19,3682.15L5861.85,4234.22C5867.29,4245.1 5872.73,4245.1 5878.17,4234.22L6220.84,3682.15Z" style="fill:white;"/>
                <path d="M8205.49,4576.83C8341.63,4495.53 8410.02,4367.86 8410.02,4193.43C8410.02,3993.01 8348.54,3850.64 8227.73,3765.42C8108.66,3681.42 7931.14,3638.71 7694.85,3638.71L6987.76,3638.71C6970.11,3638.71 6956.44,3644.26 6946.35,3654.35C6936.27,3664.43 6930.72,3678.1 6930.72,3695.75C6930.72,3695.75 6930.72,5517.86 6930.72,5517.86C6930.72,5535.51 6936.27,5549.18 6946.35,5559.27C6956.44,5569.35 6970.11,5574.9 6987.76,5574.9L7719.32,5574.9C7931.59,5574.9 8104.06,5529.75 8236.96,5440.23C8371.86,5349.36 8439.94,5207.73 8439.94,5014.74C8439.94,4912 8420.11,4824.25 8380.89,4751.4C8343.07,4681.18 8284.69,4622.9 8205.49,4576.83ZM8187.09,4568.73C8179.84,4574.17 8179.84,4579.61 8187.09,4585.05C8268.67,4630.38 8328.51,4688.39 8366.58,4759.1C8404.65,4829.81 8423.69,4915.02 8423.69,5014.74C8423.69,5201.48 8358.42,5338.82 8227.88,5426.76C8097.34,5514.69 7927.82,5558.66 7719.32,5558.66L6987.76,5558.66C6975.07,5558.66 6965.09,5555.03 6957.84,5547.78C6950.59,5540.53 6946.96,5530.55 6946.96,5517.86L6946.96,3695.75C6946.96,3683.06 6950.59,3673.09 6957.84,3665.83C6965.09,3658.58 6975.07,3654.95 6987.76,3654.95L7694.85,3654.95C7926.92,3654.95 8101.42,3696.2 8218.36,3778.7C8335.31,3861.19 8393.78,3999.43 8393.78,4193.43C8393.78,4365.67 8324.88,4490.77 8187.09,4568.73ZM7471.84,4092.81C7462.78,4092.81 7458.24,4097.34 7458.24,4106.4L7458.24,4378.36C7458.24,4387.43 7462.78,4391.96 7471.84,4391.96L7694.85,4391.96C7827.2,4391.96 7893.37,4342.1 7893.37,4242.38C7893.37,4142.66 7827.2,4092.81 7694.85,4092.81L7471.84,4092.81ZM7719.32,5120.81C7848.05,5120.81 7912.41,5067.32 7912.41,4960.35C7912.41,4858.82 7848.95,4808.05 7722.04,4808.05L7471.84,4808.05C7462.78,4808.05 7458.24,4812.59 7458.24,4821.65L7458.24,5107.21C7458.24,5116.27 7462.78,5120.81 7471.84,5120.81L7719.32,5120.81ZM7474.49,5104.56L7474.49,4824.3L7722.04,4824.3C7792.02,4824.3 7841.48,4839.69 7869.47,4873.28C7887.58,4895.01 7896.16,4924.13 7896.16,4960.35C7896.16,4998.84 7887.37,5029.78 7868.85,5052.87C7840.46,5088.26 7790.29,5104.56 7719.32,5104.56L7474.49,5104.56ZM7474.49,4375.71L7474.49,4109.05L7694.85,4109.05C7768.25,4109.05 7820.08,4124.24 7849.44,4157.42C7868.2,4178.62 7877.13,4207.04 7877.13,4242.38C7877.13,4277.72 7868.2,4306.14 7849.44,4327.35C7820.08,4360.53 7768.25,4375.71 7694.85,4375.71L7474.49,4375.71Z" style="fill:white;"/>
                <path d="M9780.25,4787.12C9886.04,4744.11 9969.13,4676.52 10029.6,4584.45C10090.2,4492.14 10120.6,4384.49 10120.6,4261.42C10120.6,4138.73 10094,4030.48 10041,3936.61C9987.84,3842.35 9913.19,3769.09 9817.07,3716.83C9721.46,3664.85 9610.57,3638.71 9484.32,3638.71L8660.29,3638.71C8642.65,3638.71 8628.97,3644.26 8618.89,3654.35C8608.81,3664.43 8603.25,3678.1 8603.25,3695.75C8603.25,3695.75 8603.25,5517.86 8603.25,5517.86C8603.25,5535.51 8608.81,5549.18 8618.89,5559.27C8628.97,5569.35 8642.65,5574.9 8660.29,5574.9L9089.99,5574.9C9107.63,5574.9 9121.31,5569.35 9131.39,5559.27C9141.47,5549.18 9147.03,5535.51 9147.03,5517.86L9147.03,4843.34L9258.6,4843.34C9259.4,4843.34 9259.77,4843.98 9260.14,4844.74C9260.16,4844.76 9558.98,5534.78 9558.98,5534.78C9568.75,5561.15 9588.94,5574.9 9620.3,5574.9L10077.2,5574.9C10092,5574.9 10104.3,5570.9 10114.1,5563.49C10125.7,5554.81 10131.5,5543.22 10131.5,5528.74C10131.5,5526.45 10129.8,5518.29 10125.2,5504.57C10125,5503.91 10124.8,5503.28 10124.5,5502.66L9780.25,4787.12ZM9620.3,5558.66C9596.73,5558.66 9581.32,5548.68 9574.07,5528.74L9274.92,4837.97C9271.29,4830.72 9265.85,4827.09 9258.6,4827.09L9144.38,4827.09C9135.31,4827.09 9130.78,4831.62 9130.78,4840.69L9130.78,5517.86C9130.78,5530.55 9127.15,5540.53 9119.9,5547.78C9112.65,5555.03 9102.68,5558.66 9089.99,5558.66L8660.29,5558.66C8647.6,5558.66 8637.63,5555.03 8630.38,5547.78C8623.13,5540.53 8619.5,5530.55 8619.5,5517.86L8619.5,3695.75C8619.5,3683.06 8623.13,3673.09 8630.38,3665.83C8637.63,3658.58 8647.6,3654.95 8660.29,3654.95L9484.32,3654.95C9607.61,3654.95 9715.94,3680.34 9809.31,3731.1C9902.68,3781.87 9975.21,3853.03 10026.9,3944.59C10078.6,4036.15 10104.4,4141.76 10104.4,4261.42C10104.4,4381.08 10074.9,4485.78 10016,4575.53C9957.08,4665.28 9875.94,4731 9772.6,4772.7C9763.53,4776.33 9760.81,4782.67 9764.44,4791.74L10109.8,5509.7C10113.5,5520.58 10115.3,5526.93 10115.3,5528.74C10115.3,5537.81 10111.6,5545.06 10104.4,5550.5C10097.1,5555.94 10088.1,5558.66 10077.2,5558.66L9620.3,5558.66ZM9144.38,4092.81C9135.31,4092.81 9130.78,4097.34 9130.78,4106.4L9130.78,4424.59C9130.78,4433.66 9135.31,4438.19 9144.38,4438.19L9400.02,4438.19C9458.03,4438.19 9505.17,4422.33 9541.43,4390.6C9577.7,4358.87 9595.83,4317.62 9595.83,4266.86C9595.83,4214.28 9577.7,4172.13 9541.43,4140.4C9505.17,4108.67 9458.03,4092.81 9400.02,4092.81L9144.38,4092.81ZM9147.03,4421.95L9147.03,4109.05L9400.02,4109.05C9453.59,4109.05 9497.25,4123.33 9530.74,4152.63C9563.46,4181.26 9579.58,4219.41 9579.58,4266.86C9579.58,4312.58 9563.4,4349.8 9530.74,4378.37C9497.25,4407.67 9453.59,4421.95 9400.02,4421.95L9147.03,4421.95Z" style="fill:white;"/>
                <path d="M10870.7,5316.54L11443,5316.54L11443.6,5317.4C11443.6,5317.41 11502.8,5527.36 11502.8,5527.36C11506.5,5543.14 11514,5554.79 11524.3,5562.72C11534.6,5570.54 11548,5574.9 11564.8,5574.9L12029.8,5574.9C12051.2,5574.9 12065.7,5568.47 12074.2,5558.4C12080.5,5550.94 12084.2,5541.16 12084.2,5528.74C12084.2,5519.11 12082.7,5511.76 12080.4,5506.55C12065.4,5458.8 11506.9,3682.72 11506.9,3682.72C11506.8,3682.63 11506.8,3682.54 11506.8,3682.45C11497.1,3653.39 11476.6,3638.71 11445.1,3638.71L10868.6,3638.71C10837.1,3638.71 10816.6,3653.39 10806.9,3682.45C10806.9,3682.54 10806.9,3682.63 10806.9,3682.72L10233,5507.55C10233,5507.65 10233,5507.74 10232.9,5507.84C10226.5,5529.74 10229.3,5546.02 10237.7,5556.97C10245.9,5567.8 10260.9,5574.9 10283.9,5574.9L10748.9,5574.9C10765.8,5574.9 10779.2,5570.54 10789.4,5562.72C10799.8,5554.79 10807.2,5543.13 10810.9,5527.33C10810.9,5527.36 10870.1,5317.41 10870.1,5317.41L10870.7,5316.54ZM11564.8,5558.66C11539.4,5558.66 11524,5546.87 11518.6,5523.3L11458.7,5311.18C11455.1,5303.92 11450.6,5300.3 11445.1,5300.3L10868.6,5300.3C10863.1,5300.3 10858.6,5303.92 10855,5311.18L10795.2,5523.3C10789.7,5546.87 10774.3,5558.66 10748.9,5558.66L10283.9,5558.66C10251.2,5558.66 10239.5,5543.24 10248.5,5512.42L10822.4,3687.59C10829.6,3665.83 10845,3654.95 10868.6,3654.95L11445.1,3654.95C11468.7,3654.95 11484.1,3665.83 11491.4,3687.59L12065.2,5512.42C12067,5516.05 12067.9,5521.49 12067.9,5528.74C12067.9,5548.68 12055.2,5558.66 12029.8,5558.66L11564.8,5558.66ZM10974.6,4892.36C10972.8,4903.24 10976.5,4908.68 10985.5,4908.68L11325.5,4908.68C11336.4,4908.68 11340,4903.24 11336.4,4892.36L11162.3,4283.18C11160.5,4277.74 11157.8,4275.02 11154.1,4275.02C11150.5,4275.02 11147.8,4277.74 11146,4283.18L10974.6,4892.36ZM11154.2,4313.97L10991.5,4892.43L11319.5,4892.43L11154.2,4313.97Z" style="fill:white;"/>
                <path d="M13286.3,4575.1L12748.2,3673.82C12748.2,3673.81 12748.2,3673.8 12748.1,3673.79C12734.2,3650.48 12713.2,3638.71 12685.3,3638.71L12274.6,3638.71C12257,3638.71 12243.3,3644.26 12233.2,3654.35C12223.1,3664.43 12217.6,3678.1 12217.6,3695.75C12217.6,3695.75 12217.6,5517.86 12217.6,5517.86C12217.6,5535.51 12223.1,5549.18 12233.2,5559.27C12243.3,5569.35 12257,5574.9 12274.6,5574.9L12704.3,5574.9C12721.9,5574.9 12735.6,5569.35 12745.7,5559.27C12755.8,5549.18 12761.3,5535.51 12761.3,5517.86C12761.3,5517.83 12761.3,5517.8 12761.3,5517.77L12756.1,4638.53L13296.8,5539.82C13310.8,5563.13 13331.7,5574.9 13359.7,5574.9L13770.4,5574.9C13788,5574.9 13801.7,5569.35 13811.8,5559.27C13821.9,5549.18 13827.4,5535.51 13827.4,5517.86L13827.4,3695.75C13827.4,3678.1 13821.9,3664.43 13811.8,3654.35C13801.7,3644.26 13788,3638.71 13770.4,3638.71L13340.7,3638.71C13323,3638.71 13309.4,3644.26 13299.3,3654.35C13289.2,3664.43 13283.6,3678.1 13283.6,3695.75C13283.6,3695.76 13283.6,3695.78 13283.6,3695.8L13286.3,4575.1ZM13299.9,3695.75C13299.9,3683.06 13303.5,3673.09 13310.8,3665.83C13318,3658.58 13328,3654.95 13340.7,3654.95L13770.4,3654.95C13783.1,3654.95 13793,3658.58 13800.3,3665.83C13807.5,3673.09 13811.2,3683.06 13811.2,3695.75L13811.2,5517.86C13811.2,5530.55 13807.5,5540.53 13800.3,5547.78C13793,5555.03 13783.1,5558.66 13770.4,5558.66L13359.7,5558.66C13338,5558.66 13321.6,5549.59 13310.8,5531.46L12756,4606.81C12752.3,4601.37 12748.7,4599.1 12745.1,4600.01C12741.5,4600.91 12739.7,4604.99 12739.7,4612.24L12745.1,5517.86C12745.1,5530.55 12741.5,5540.53 12734.2,5547.78C12727,5555.03 12717,5558.66 12704.3,5558.66L12274.6,5558.66C12261.9,5558.66 12251.9,5555.03 12244.7,5547.78C12237.4,5540.53 12233.8,5530.55 12233.8,5517.86L12233.8,3695.75C12233.8,3683.06 12237.4,3673.09 12244.7,3665.83C12251.9,3658.58 12261.9,3654.95 12274.6,3654.95L12685.3,3654.95C12707,3654.95 12723.3,3664.02 12734.2,3682.15L13286.3,4606.81C13289.9,4612.24 13293.5,4614.51 13297.2,4613.6C13300.8,4612.7 13302.6,4608.62 13302.6,4601.37L13299.9,3695.75Z" style="fill:white;"/>
                <path d="M14760.3,5607.54C14915.5,5607.54 15051.7,5576.44 15169,5514.56C15286.9,5452.34 15378.4,5365.03 15443.4,5252.68C15508.2,5140.65 15540.7,5010.59 15540.7,4862.44C15540.7,4862.44 15540.7,4351.17 15540.7,4351.17C15540.7,4206.65 15508.2,4078.84 15443.3,3967.68C15378.3,3856.23 15286.9,3769.83 15168.9,3708.53C15051.6,3647.58 14915.4,3616.95 14760.3,3616.95C14607,3616.95 14471.7,3647.57 14354.4,3708.53C14236.4,3769.83 14145,3856.23 14080,3967.68C14015.1,4078.84 13982.6,4206.65 13982.6,4351.17C13982.6,4351.17 13982.6,4862.44 13982.6,4862.44C13982.6,5010.59 14015.1,5140.65 14079.9,5252.68C14144.9,5365.03 14236.4,5452.34 14354.3,5514.56C14471.6,5576.45 14606.9,5607.54 14760.3,5607.54ZM14760.3,5591.29C14609.8,5591.29 14477,5560.92 14361.9,5500.19C14246.7,5439.45 14157.5,5354.23 14094,5244.55C14030.5,5134.86 13998.8,5007.49 13998.8,4862.44L13998.8,4351.17C13998.8,4209.75 14030.5,4084.65 14094,3975.87C14157.5,3867.08 14246.7,3782.78 14361.9,3722.94C14477,3663.11 14609.8,3633.2 14760.3,3633.2C14912.6,3633.2 15046.3,3663.11 15161.4,3722.94C15276.6,3782.78 15365.9,3867.08 15429.3,3975.87C15492.8,4084.65 15524.5,4209.75 15524.5,4351.17L15524.5,4862.44C15524.5,5007.49 15492.8,5134.86 15429.3,5244.55C15365.9,5354.23 15276.6,5439.45 15161.4,5500.19C15046.3,5560.92 14912.6,5591.29 14760.3,5591.29ZM14760.3,5153.44C14836.4,5153.44 14897.6,5128.51 14943.9,5078.65C14990.1,5028.79 15013.2,4962.16 15013.2,4878.76L15013.2,4345.73C15013.2,4262.33 14990.1,4195.7 14943.9,4145.84C14897.6,4095.98 14836.4,4071.05 14760.3,4071.05C14686,4071.05 14625.7,4095.98 14579.4,4145.84C14533.2,4195.7 14510.1,4262.33 14510.1,4345.73L14510.1,4878.76C14510.1,4962.16 14533.2,5028.79 14579.4,5078.65C14625.7,5128.51 14686,5153.44 14760.3,5153.44ZM14760.3,5137.19C14690.9,5137.19 14634.5,5114.15 14591.4,5067.61C14547.7,5020.54 14526.3,4957.49 14526.3,4878.76L14526.3,4345.73C14526.3,4267 14547.7,4203.95 14591.4,4156.89C14634.5,4110.34 14690.9,4087.3 14760.3,4087.3C14831.5,4087.3 14888.8,4110.29 14932,4156.89C14975.6,4203.95 14997,4267 14997,4345.73C14997,4345.73 14997,4878.76 14997,4878.76C14997,4957.49 14975.6,5020.54 14932,5067.61C14888.8,5114.19 14831.5,5137.19 14760.3,5137.19Z" style="fill:white;"/>
            </g>
        </g>
        <g transform="matrix(0.42259,0,0,0.42259,855.995,2730.44)">
            <g opacity="0.5">
                <path d="M2261.14,5596.66C2412.52,5596.66 2545.87,5568.37 2661.24,5512.07C2777.43,5455.36 2867.54,5375.82 2931.68,5273.57C2995.8,5171.36 3027.99,5053.37 3027.99,4919.56C3027.99,4895.99 3011.31,4878.77 2972.03,4876.15C2971.94,4876.14 2971.86,4876.14 2971.77,4876.14L2542.78,4854.41C2525.3,4852.06 2511.66,4855.49 2501.59,4863.05C2490.41,4871.43 2484.22,4883.74 2484.22,4900.52C2484.22,4968.29 2464.25,5023.06 2423.59,5064.56C2383.01,5105.98 2328.76,5126.32 2261.14,5126.32C2193.51,5126.32 2139.27,5105.98 2098.69,5064.56C2058.03,5023.06 2038.06,4968.29 2038.06,4900.52L2038.06,4315.81C2038.06,4246.28 2057.99,4190.6 2098.69,4149.05C2139.27,4107.63 2193.51,4087.3 2261.14,4087.3C2328.76,4087.3 2383.01,4107.63 2423.59,4149.05C2464.28,4190.6 2484.22,4246.28 2484.22,4315.81C2484.22,4331.24 2489.23,4342.51 2497.64,4350.22C2505.58,4357.5 2517.22,4361.97 2533.1,4361.97C2533.1,4361.97 2541.26,4361.97 2541.26,4361.97C2541.6,4361.97 2541.94,4361.96 2542.28,4361.94L2971.97,4334.74C2972.35,4334.72 2972.72,4334.69 2973.1,4334.64C3011.6,4329.5 3027.99,4311.72 3027.99,4288.62C3027.99,4154.76 2995.78,4037.22 2931.64,3935.9C2867.49,3834.56 2777.37,3755.92 2661.15,3700.14C2545.8,3644.77 2412.48,3616.95 2261.14,3616.95C2109.66,3616.95 1976.22,3646.65 1860.76,3705.76C1744.61,3765.23 1654.51,3848.9 1590.4,3956.68C1526.42,4064.24 1494.29,4188.46 1494.29,4329.41L1494.29,4878.76C1494.29,5021.51 1526.41,5147.07 1590.37,5255.52C1654.49,5364.24 1744.6,5448.37 1860.76,5507.85C1976.22,5566.96 2109.66,5596.66 2261.14,5596.66ZM2261.14,5580.41C2112.47,5580.41 1981.48,5551.4 1868.16,5493.39C1754.85,5435.37 1666.91,5353.33 1604.36,5247.27C1541.81,5141.2 1510.54,5018.37 1510.54,4878.76L1510.54,4329.41C1510.54,4191.62 1541.81,4070.14 1604.36,3964.99C1666.91,3859.83 1754.85,3778.24 1868.16,3720.22C1981.48,3662.21 2112.47,3633.2 2261.14,3633.2C2409.81,3633.2 2540.8,3660.39 2654.12,3714.79C2767.43,3769.18 2855.37,3845.78 2917.92,3944.59C2980.47,4043.4 3011.74,4158.08 3011.74,4288.62C3011.74,4304.93 2998.14,4314.9 2970.95,4318.53L2541.26,4345.73L2533.1,4345.73C2511.34,4345.73 2500.46,4335.76 2500.46,4315.81C2500.46,4241.48 2478.7,4182.1 2435.19,4137.68C2391.68,4093.26 2333.66,4071.05 2261.14,4071.05C2188.62,4071.05 2130.6,4093.26 2087.09,4137.68C2043.57,4182.1 2021.82,4241.48 2021.82,4315.81L2021.82,4900.52C2021.82,4973.04 2043.57,5031.51 2087.09,5075.93C2130.6,5120.35 2188.62,5142.56 2261.14,5142.56C2333.66,5142.56 2391.68,5120.35 2435.19,5075.93C2478.7,5031.51 2500.46,4973.04 2500.46,4900.52C2500.46,4889.64 2504.09,4881.48 2511.34,4876.04C2518.59,4870.6 2528.56,4868.79 2541.26,4870.6L2970.95,4892.36C2998.14,4894.17 3011.74,4903.24 3011.74,4919.56C3011.74,5050.1 2980.47,5165.22 2917.92,5264.94C2855.37,5364.66 2767.43,5442.17 2654.12,5497.47C2540.8,5552.76 2409.81,5580.41 2261.14,5580.41Z" style="fill:white;"/>
                <path d="M3718.76,4843.34L3830.33,4843.34C3831.13,4843.34 3831.5,4843.98 3831.88,4844.74C3839.26,4861.78 4122.51,5515.82 4130.71,5534.78C4140.48,5561.15 4160.68,5574.9 4192.04,5574.9L4648.92,5574.9C4663.74,5574.9 4675.99,5570.9 4685.87,5563.49C4697.45,5554.81 4703.24,5543.22 4703.24,5528.74C4703.24,5526.45 4701.55,5518.29 4696.97,5504.57C4696.76,5503.91 4696.5,5503.28 4696.2,5502.66L4351.98,4787.12C4457.77,4744.11 4540.86,4676.52 4601.32,4584.45C4661.92,4492.14 4692.37,4384.49 4692.37,4261.42C4692.37,4138.73 4665.74,4030.48 4612.76,3936.61C4559.57,3842.35 4484.93,3769.09 4388.81,3716.83C4293.19,3664.85 4182.3,3638.71 4056.06,3638.71C4056.06,3638.71 3232.03,3638.71 3232.03,3638.71C3214.38,3638.71 3200.71,3644.26 3190.62,3654.35C3180.54,3664.43 3174.99,3678.1 3174.99,3695.75L3174.99,5517.86C3174.99,5535.51 3180.54,5549.18 3190.62,5559.27C3200.71,5569.35 3214.38,5574.9 3232.03,5574.9L3661.72,5574.9C3679.37,5574.9 3693.04,5569.35 3703.12,5559.27C3713.21,5549.18 3718.76,5535.51 3718.76,5517.86L3718.76,4843.34ZM4192.04,5558.66C4168.47,5558.66 4153.06,5548.68 4145.8,5528.74L3846.65,4837.97C3843.02,4830.72 3837.59,4827.09 3830.33,4827.09L3716.11,4827.09C3707.05,4827.09 3702.51,4831.62 3702.51,4840.69L3702.51,5517.86C3702.51,5530.55 3698.89,5540.53 3691.64,5547.78C3684.38,5555.03 3674.41,5558.66 3661.72,5558.66L3232.03,5558.66C3219.34,5558.66 3209.36,5555.03 3202.11,5547.78C3194.86,5540.53 3191.23,5530.55 3191.23,5517.86L3191.23,3695.75C3191.23,3683.06 3194.86,3673.09 3202.11,3665.83C3209.36,3658.58 3219.34,3654.95 3232.03,3654.95L4056.06,3654.95C4179.35,3654.95 4287.67,3680.34 4381.05,3731.1C4474.42,3781.87 4546.94,3853.03 4598.61,3944.59C4650.28,4036.15 4676.12,4141.76 4676.12,4261.42C4676.12,4381.08 4646.66,4485.78 4587.73,4575.53C4528.81,4665.28 4447.68,4731 4344.33,4772.7C4335.27,4776.33 4332.55,4782.67 4336.17,4791.74L4681.56,5509.7C4685.19,5520.58 4687,5526.93 4687,5528.74C4687,5537.81 4683.37,5545.06 4676.12,5550.5C4668.87,5555.94 4659.8,5558.66 4648.92,5558.66L4192.04,5558.66ZM3716.11,4092.81C3707.05,4092.81 3702.51,4097.34 3702.51,4106.4L3702.51,4424.59C3702.51,4433.66 3707.05,4438.19 3716.11,4438.19L3971.75,4438.19C4029.77,4438.19 4076.91,4422.33 4113.17,4390.6C4149.43,4358.87 4167.56,4317.62 4167.56,4266.86C4167.56,4214.28 4149.43,4172.13 4113.17,4140.4C4076.91,4108.67 4029.77,4092.81 3971.75,4092.81L3716.11,4092.81ZM3718.76,4109.05L3971.75,4109.05C4025.33,4109.05 4068.99,4123.33 4102.47,4152.63C4135.19,4181.26 4151.31,4219.41 4151.31,4266.86C4151.31,4312.58 4135.13,4349.8 4102.47,4378.37C4068.99,4407.67 4025.33,4421.95 3971.75,4421.95L3718.76,4421.95L3718.76,4109.05Z" style="fill:white;"/>
                <path d="M4904.56,5574.9L5334.26,5574.9C5351.9,5574.9 5365.58,5569.35 5375.66,5559.27C5385.74,5549.18 5391.3,5535.51 5391.3,5517.86C5391.3,5517.86 5391.3,3695.75 5391.3,3695.75C5391.3,3678.1 5385.74,3664.43 5375.66,3654.35C5365.58,3644.26 5351.9,3638.71 5334.26,3638.71C5334.26,3638.71 4904.56,3638.71 4904.56,3638.71C4886.92,3638.71 4873.24,3644.26 4863.16,3654.35C4853.08,3664.43 4847.52,3678.1 4847.52,3695.75L4847.52,5517.86C4847.52,5535.51 4853.08,5549.18 4863.16,5559.27C4873.24,5569.35 4886.92,5574.9 4904.56,5574.9ZM4904.56,5558.66C4891.87,5558.66 4881.9,5555.03 4874.65,5547.78C4867.4,5540.53 4863.77,5530.55 4863.77,5517.86L4863.77,3695.75C4863.77,3683.06 4867.4,3673.09 4874.65,3665.83C4881.9,3658.58 4891.87,3654.95 4904.56,3654.95L5334.26,3654.95C5346.95,3654.95 5356.92,3658.58 5364.17,3665.83C5371.42,3673.09 5375.05,3683.06 5375.05,3695.75L5375.05,5517.86C5375.05,5530.55 5371.42,5540.53 5364.17,5547.78C5356.92,5555.03 5346.95,5558.66 5334.26,5558.66L4904.56,5558.66Z" style="fill:white;"/>
                <path d="M6307.86,5596.66C6457.15,5596.66 6587.99,5572.57 6700.41,5524.65C6814.02,5476.23 6902.39,5406.74 6965.7,5316.42C7029.19,5225.86 7061.11,5118.09 7061.11,4992.98C7061.11,4863.7 7021.62,4753.67 6942.93,4662.8C6864.72,4572.49 6767.44,4510.09 6651.06,4475.65C6538.4,4442.3 6474.85,4422.95 6460.43,4417.54C6460.13,4417.43 6459.84,4417.33 6459.54,4417.24C6354.99,4384.79 6277.48,4358.23 6227.01,4337.5C6178.49,4317.57 6142.41,4296.99 6119.01,4275.34C6098.05,4255.92 6087.51,4232.26 6087.51,4204.31C6087.51,4168.28 6101.94,4140.06 6130.91,4119.7C6162.14,4097.75 6204.9,4087.3 6258.91,4087.3C6337.66,4087.3 6400.3,4107.77 6446.52,4149.71C6491.58,4190.6 6514.62,4235.83 6514.62,4285.9C6514.62,4285.9 6514.62,4288.62 6514.62,4288.62C6514.62,4306.26 6520.18,4319.94 6530.26,4330.02C6540.34,4340.1 6554.02,4345.66 6571.66,4345.66L6993.2,4345.66C7010.84,4345.66 7024.52,4340.1 7034.6,4330.02C7044.68,4319.94 7050.24,4306.26 7050.24,4288.62C7050.24,4288.62 7050.24,4264.14 7050.24,4264.14C7050.24,4137.39 7016.14,4024.65 6948.11,3925.86C6880.3,3827.4 6787.48,3751.16 6669.52,3697.29C6552.36,3643.78 6421.85,3616.95 6277.95,3616.95C6141.37,3616.95 6018.19,3641.03 5908.38,3689.02C5797.59,3737.43 5710.61,3806.88 5647.3,3897.19C5583.76,3987.84 5551.89,4092 5551.89,4209.75C5551.89,4387.76 5615.09,4523.42 5740.63,4617.11C5863.47,4708.77 6015.59,4782.2 6197.09,4837.2C6197.22,4837.24 6197.35,4837.28 6197.48,4837.31L6276.16,4859.02C6370.61,4887.54 6435.71,4911.46 6471.37,4931.07C6501.91,4947.87 6517.34,4972.98 6517.34,5006.58C6517.34,5036.81 6504.23,5064.08 6478.77,5088.74C6452.11,5114.57 6407.6,5126.32 6345.94,5126.32C6261.13,5126.32 6193.08,5108.17 6142.02,5070.96C6093.55,5035.64 6068.47,4995.48 6068.47,4949.47L6068.47,4933.15C6068.47,4915.51 6062.92,4901.83 6052.83,4891.75C6042.75,4881.67 6029.08,4876.11 6011.43,4876.11C6011.43,4876.11 5589.9,4876.11 5589.9,4876.11C5572.25,4876.11 5558.58,4881.67 5548.49,4891.75C5538.41,4901.83 5532.86,4915.51 5532.86,4933.15L5532.86,4971.23C5532.86,5096.16 5565.14,5206.14 5629.47,5301.24C5693.68,5396.16 5784.33,5469.33 5901.59,5520.51C6017.67,5571.19 6153.08,5596.66 6307.86,5596.66ZM6307.86,5580.41C6155.57,5580.41 6022.31,5555.48 5908.09,5505.62C5793.86,5455.77 5705.48,5384.6 5642.93,5292.14C5580.38,5199.67 5549.1,5092.7 5549.1,4971.23L5549.1,4933.15C5549.1,4920.46 5552.73,4910.49 5559.98,4903.24C5567.23,4895.99 5577.2,4892.36 5589.9,4892.36L6011.43,4892.36C6024.12,4892.36 6034.09,4895.99 6041.35,4903.24C6048.6,4910.49 6052.22,4920.46 6052.22,4933.15L6052.22,4949.47C6052.22,5000.24 6078.97,5045.11 6132.45,5084.09C6185.94,5123.07 6257.1,5142.56 6345.94,5142.56C6413.02,5142.56 6461.07,5128.51 6490.07,5100.41C6519.08,5072.31 6533.59,5041.03 6533.59,5006.58C6533.59,4966.7 6515.46,4936.78 6479.2,4916.84C6442.94,4896.89 6376.76,4872.42 6280.67,4843.41L6201.8,4821.65C6022.31,4767.26 5871.82,4694.74 5750.35,4604.09C5628.88,4513.43 5568.14,4381.99 5568.14,4209.75C5568.14,4095.53 5598.96,3994.45 5660.61,3906.52C5722.25,3818.58 5807.01,3751.05 5914.89,3703.91C6022.76,3656.77 6143.78,3633.2 6277.95,3633.2C6419.37,3633.2 6547.64,3659.49 6662.77,3712.07C6777.9,3764.64 6868.55,3838.98 6934.73,3935.07C7000.9,4031.16 7033.99,4140.85 7033.99,4264.14L7033.99,4288.62C7033.99,4301.31 7030.36,4311.28 7023.11,4318.53C7015.86,4325.78 7005.89,4329.41 6993.2,4329.41L6571.66,4329.41C6558.97,4329.41 6549,4325.78 6541.75,4318.53C6534.49,4311.28 6530.87,4301.31 6530.87,4288.62L6530.87,4285.9C6530.87,4231.51 6506.39,4182.1 6457.44,4137.68C6408.49,4093.26 6342.31,4071.05 6258.91,4071.05C6200.89,4071.05 6155.11,4082.84 6121.57,4106.4C6088.03,4129.97 6071.26,4162.61 6071.26,4204.31C6071.26,4236.94 6083.5,4264.59 6107.98,4287.26C6132.45,4309.92 6170.07,4331.68 6220.84,4352.53C6271.6,4373.38 6349.56,4400.12 6454.72,4432.75C6469.23,4438.19 6533.14,4457.68 6646.45,4491.22C6759.77,4524.77 6854.5,4585.5 6930.65,4673.44C7006.79,4761.37 7044.87,4867.89 7044.87,4992.98C7044.87,5114.46 7014.05,5219.16 6952.4,5307.1C6890.76,5395.03 6804.64,5462.56 6694.04,5509.7C6583.45,5556.84 6454.72,5580.41 6307.86,5580.41Z" style="fill:white;"/>
                <path d="M7648.68,4111.77L7648.68,5517.86C7648.68,5535.51 7654.24,5549.18 7664.32,5559.27C7674.4,5569.35 7688.08,5574.9 7705.72,5574.9L8135.42,5574.9C8153.06,5574.9 8166.74,5569.35 8176.82,5559.27C8186.9,5549.18 8192.46,5535.51 8192.46,5517.86L8192.46,4111.77L8646.7,4111.77C8664.34,4111.77 8678.02,4106.22 8688.1,4096.14C8698.18,4086.05 8703.74,4072.38 8703.74,4054.73C8703.74,4054.73 8703.74,3695.75 8703.74,3695.75C8703.74,3678.1 8698.18,3664.43 8688.1,3654.35C8678.02,3644.26 8664.34,3638.71 8646.7,3638.71L7208.04,3638.71C7190.4,3638.71 7176.72,3644.26 7166.64,3654.35C7156.56,3664.43 7151,3678.1 7151,3695.75L7151,4054.73C7151,4072.38 7156.56,4086.05 7166.64,4096.14C7176.72,4106.22 7190.4,4111.77 7208.04,4111.77L7648.68,4111.77ZM8646.7,3654.95C8659.39,3654.95 8669.36,3658.58 8676.61,3665.83C8683.86,3673.09 8687.49,3683.06 8687.49,3695.75L8687.49,4054.73C8687.49,4067.42 8683.86,4077.39 8676.61,4084.65C8669.36,4091.9 8659.39,4095.53 8646.7,4095.53L8189.81,4095.53C8180.74,4095.53 8176.21,4100.06 8176.21,4109.12L8176.21,5517.86C8176.21,5530.55 8172.58,5540.53 8165.33,5547.78C8158.08,5555.03 8148.11,5558.66 8135.42,5558.66L7705.72,5558.66C7693.03,5558.66 7683.06,5555.03 7675.81,5547.78C7668.56,5540.53 7664.93,5530.55 7664.93,5517.86L7664.93,4109.12C7664.93,4100.06 7660.4,4095.53 7651.33,4095.53L7208.04,4095.53C7195.35,4095.53 7185.38,4091.9 7178.13,4084.65C7170.88,4077.39 7167.25,4067.42 7167.25,4054.73L7167.25,3695.75C7167.25,3683.06 7170.88,3673.09 7178.13,3665.83C7185.38,3658.58 7195.35,3654.95 7208.04,3654.95L8646.7,3654.95Z" style="fill:white;"/>
                <path d="M8883.3,5574.9L9312.99,5574.9C9330.64,5574.9 9344.31,5569.35 9354.39,5559.27C9364.48,5549.18 9370.03,5535.51 9370.03,5517.86L9370.03,3695.75C9370.03,3678.1 9364.48,3664.43 9354.39,3654.35C9344.31,3644.26 9330.64,3638.71 9312.99,3638.71C9312.99,3638.71 8883.3,3638.71 8883.3,3638.71C8865.65,3638.71 8851.98,3644.26 8841.9,3654.35C8831.81,3664.43 8826.26,3678.1 8826.26,3695.75L8826.26,5517.86C8826.26,5535.51 8831.81,5549.18 8841.9,5559.27C8851.98,5569.35 8865.65,5574.9 8883.3,5574.9ZM8883.3,5558.66C8870.61,5558.66 8860.64,5555.03 8853.38,5547.78C8846.13,5540.53 8842.51,5530.55 8842.51,5517.86L8842.51,3695.75C8842.51,3683.06 8846.13,3673.09 8853.38,3665.83C8860.64,3658.58 8870.61,3654.95 8883.3,3654.95L9312.99,3654.95C9325.68,3654.95 9335.65,3658.58 9342.91,3665.83C9350.16,3673.09 9353.78,3683.06 9353.78,3695.75L9353.78,5517.86C9353.78,5530.55 9350.16,5540.53 9342.91,5547.78C9335.65,5555.03 9325.68,5558.66 9312.99,5558.66L8883.3,5558.66Z" style="fill:white;"/>
                <path d="M10144.6,5316.54L10716.9,5316.54L10717.5,5317.4C10717.5,5317.41 10776.7,5527.36 10776.7,5527.36C10780.4,5543.14 10787.8,5554.79 10798.2,5562.72C10808.4,5570.54 10821.8,5574.9 10838.7,5574.9L11303.7,5574.9C11325.1,5574.9 11339.5,5568.47 11348.1,5558.4C11354.4,5550.94 11358,5541.16 11358,5528.74C11358,5519.11 11356.5,5511.76 11354.3,5506.55C11339.2,5458.8 10780.7,3682.72 10780.7,3682.72C10780.7,3682.63 10780.7,3682.54 10780.7,3682.45C10771,3653.39 10750.5,3638.71 10719,3638.71C10719,3638.71 10142.5,3638.71 10142.5,3638.71C10111,3638.71 10090.5,3653.39 10080.8,3682.45C10080.8,3682.54 10080.8,3682.63 10080.7,3682.72L9506.9,5507.55C9506.87,5507.65 9506.84,5507.74 9506.81,5507.84C9500.37,5529.74 9503.16,5546.02 9511.53,5556.97C9519.82,5567.8 9534.81,5574.9 9557.75,5574.9L10022.8,5574.9C10039.6,5574.9 10053,5570.54 10063.3,5562.72C10073.6,5554.79 10081.1,5543.13 10084.8,5527.33C10084.8,5527.36 10144,5317.41 10144,5317.41L10144.6,5316.54ZM10838.7,5558.66C10813.3,5558.66 10797.9,5546.87 10792.4,5523.3L10732.6,5311.18C10729,5303.92 10724.4,5300.3 10719,5300.3L10142.5,5300.3C10137,5300.3 10132.5,5303.92 10128.9,5311.18L10069,5523.3C10063.6,5546.87 10048.2,5558.66 10022.8,5558.66L9557.75,5558.66C9525.12,5558.66 9513.33,5543.24 9522.4,5512.42L10096.2,3687.59C10103.5,3665.83 10118.9,3654.95 10142.5,3654.95L10719,3654.95C10742.6,3654.95 10758,3665.83 10765.2,3687.59L11339.1,5512.42C11340.9,5516.05 11341.8,5521.49 11341.8,5528.74C11341.8,5548.68 11329.1,5558.66 11303.7,5558.66L10838.7,5558.66ZM10248.5,4892.36C10246.7,4903.24 10250.3,4908.68 10259.4,4908.68L10599.3,4908.68C10610.2,4908.68 10613.9,4903.24 10610.2,4892.36L10436.2,4283.18C10434.4,4277.74 10431.6,4275.02 10428,4275.02C10424.4,4275.02 10421.7,4277.74 10419.9,4283.18L10248.5,4892.36ZM10265.4,4892.43L10593.4,4892.43L10428.1,4313.97L10265.4,4892.43Z" style="fill:white;"/>
                <path d="M12029.9,4638.53L12570.7,5539.82C12584.7,5563.13 12605.6,5574.9 12633.6,5574.9L13044.2,5574.9C13061.9,5574.9 13075.6,5569.35 13085.6,5559.27C13095.7,5549.18 13101.3,5535.51 13101.3,5517.86C13101.3,5517.86 13101.3,3695.75 13101.3,3695.75C13101.3,3678.1 13095.7,3664.43 13085.6,3654.35C13075.6,3644.26 13061.9,3638.71 13044.2,3638.71C13044.2,3638.71 12614.6,3638.71 12614.6,3638.71C12596.9,3638.71 12583.2,3644.26 12573.1,3654.35C12563.1,3664.43 12557.5,3678.1 12557.5,3695.75C12557.5,3695.76 12557.5,3695.78 12557.5,3695.8L12560.2,4575.1L12022,3673.82C12022,3673.81 12022,3673.8 12022,3673.79C12008,3650.48 11987.1,3638.71 11959.1,3638.71C11959.1,3638.71 11548.5,3638.71 11548.5,3638.71C11530.8,3638.71 11517.2,3644.26 11507.1,3654.35C11497,3664.43 11491.4,3678.1 11491.4,3695.75L11491.4,5517.86C11491.4,5535.51 11497,5549.18 11507.1,5559.27C11517.2,5569.35 11530.8,5574.9 11548.5,5574.9L11978.2,5574.9C11995.8,5574.9 12009.5,5569.35 12019.6,5559.27C12029.7,5549.18 12035.2,5535.51 12035.2,5517.86C12035.2,5517.83 12035.2,5517.8 12035.2,5517.77L12029.9,4638.53ZM12573.8,3695.75C12573.8,3683.06 12577.4,3673.09 12584.6,3665.83C12591.9,3658.58 12601.9,3654.95 12614.6,3654.95L13044.2,3654.95C13056.9,3654.95 13066.9,3658.58 13074.2,3665.83C13081.4,3673.09 13085,3683.06 13085,3695.75L13085,5517.86C13085,5530.55 13081.4,5540.53 13074.2,5547.78C13066.9,5555.03 13056.9,5558.66 13044.2,5558.66L12633.6,5558.66C12611.8,5558.66 12595.5,5549.59 12584.6,5531.46L12029.8,4606.81C12026.2,4601.37 12022.6,4599.1 12019,4600.01C12015.3,4600.91 12013.5,4604.99 12013.5,4612.24L12019,5517.86C12019,5530.55 12015.3,5540.53 12008.1,5547.78C12000.8,5555.03 11990.9,5558.66 11978.2,5558.66L11548.5,5558.66C11535.8,5558.66 11525.8,5555.03 11518.6,5547.78C11511.3,5540.53 11507.7,5530.55 11507.7,5517.86L11507.7,3695.75C11507.7,3683.06 11511.3,3673.09 11518.6,3665.83C11525.8,3658.58 11535.8,3654.95 11548.5,3654.95L11959.1,3654.95C11980.9,3654.95 11997.2,3664.02 12008.1,3682.15L12560.2,4606.81C12563.8,4612.24 12567.4,4614.51 12571,4613.6C12574.7,4612.7 12576.5,4608.62 12576.5,4601.37L12573.8,3695.75Z" style="fill:white;"/>
            </g>
        </g>
    </g>
</svg>
